# xmcd
#
# Track frame offsets:
#	150
#	71324
#	171449
#	269524
#
# Disc length: 4502 seconds
#
# Revision: 2
# Processed by: cddbd v1.5.2PL0 Copyright (c) Steve Scherf et al.
# Submitted via: audiograbber 1.83.01
#
DISCID=35119404
DTITLE=Klaus Schulze - Silhouettes
DYEAR=2018
DGENRE=Electronic
TTITLE0=Silhouettes
TTITLE1=Der lange Blick zurück
TTITLE2=Quae Simplex
TTITLE3=Châteaux faits de vent
EXTD=
EXTT0=
EXTT1=
EXTT2=
EXTT3=
PLAYORDER=
